<?xml version="1.0" encoding="UTF-8"?>
<svg version="1.1" xmlns="http://www.w3.org/2000/svg" width="993" height="975">
<path d="M0 0 C327.69 0 655.38 0 993 0 C993 321.75 993 643.5 993 975 C665.31 975 337.62 975 0 975 C0 653.25 0 331.5 0 0 Z " fill="#FEEDD5" transform="translate(0,0)"/>
<path d="M0 0 C66 0 132 0 200 0 C200 12.54 200 25.08 200 38 C146.87 38 93.74 38 39 38 C39 48.89 39 59.78 39 71 C92.13 71 145.26 71 200 71 C200 83.54 200 96.08 200 109 C146.87 109 93.74 109 39 109 C39 158.17 39 207.34 39 258 C26.13 258 13.26 258 0 258 C0 172.86 0 87.72 0 0 Z " fill="#131821" transform="translate(448,420)"/>
<path d="M0 0 C89.76 0 179.52 0 272 0 C272 12.54 272 25.08 272 38 C194.78 38 117.56 38 38 38 C38 134.36 38 230.72 38 330 C25.46 330 12.92 330 0 330 C0 221.1 0 112.2 0 0 Z " fill="#12171F" transform="translate(376,348)"/>
<path d="M0 0 C66 0 132 0 200 0 C200 12.54 200 25.08 200 38 C146.87 38 93.74 38 39 38 C39 48.89 39 59.78 39 71 C92.13 71 145.26 71 200 71 C200 83.54 200 96.08 200 109 C146.87 109 93.74 109 39 109 C39 158.17 39 207.34 39 258 C26.13 258 13.26 258 0 258 C0 172.86 0 87.72 0 0 Z M2 1 C2 85.15 2 169.3 2 256 C13.55 256 25.1 256 37 256 C37.33 207.49 37.66 158.98 38 109 C91.13 108.67 144.26 108.34 199 108 C199 96.45 199 84.9 199 73 C194.15836182 72.97494385 189.31672363 72.9498877 184.32836914 72.92407227 C168.3747479 72.84079004 152.42115995 72.75213042 136.46758366 72.66066074 C126.79000639 72.60530696 117.11242545 72.55182149 107.43481445 72.50268555 C99.00297353 72.45987004 90.57115999 72.41359881 82.13936132 72.36312145 C77.67194215 72.33649922 73.20452848 72.3116457 68.73707771 72.29092598 C64.53713178 72.27139244 60.33723808 72.24725872 56.13733864 72.21950912 C54.59132584 72.21012123 53.04530155 72.20245225 51.49927139 72.19658089 C49.39761414 72.18834908 47.29608466 72.17408104 45.19447327 72.15821838 C44.01550004 72.15176583 42.83652681 72.14531328 41.62182713 72.1386652 C39 72 39 72 38 71 C38 59.78 38 48.56 38 37 C91.13 37 144.26 37 199 37 C199 25.12 199 13.24 199 1 C133.99 1 68.98 1 2 1 Z " fill="#020408" transform="translate(448,420)"/>
</svg>
